<?xml version="1.0" standalone="no"?><!DOCTYPE svg PUBLIC "-//W3C//DTD SVG 1.1//EN" "http://www.w3.org/Graphics/SVG/1.1/DTD/svg11.dtd"><svg t="1742123564146" class="icon" viewBox="0 0 1272 1024" version="1.1" xmlns="http://www.w3.org/2000/svg" p-id="5027" xmlns:xlink="http://www.w3.org/1999/xlink" width="248.4375" height="200"><path d="M508.617697 225.590303l447.301818 762.290424a23.986424 23.986424 0 0 1-20.697212 36.119273H40.680727a23.986424 23.986424 0 0 1-20.697212-36.119273L467.254303 225.590303a23.986424 23.986424 0 0 1 41.363394 0z" fill="#E2E2E2" p-id="5028"></path><path d="M910.615273 119.156364a100.693333 100.538182 0 1 0 201.386666 0 100.693333 100.538182 0 1 0-201.386666 0Z" fill="#E2E2E2" p-id="5029"></path><path d="M966.221576 485.003636l301.831757 502.690909a23.986424 23.986424 0 0 1-20.54206 36.305455H643.816727a23.986424 23.986424 0 0 1-20.573091-36.305455l301.862788-502.690909a23.986424 23.986424 0 0 1 41.115152 0z" fill="#E2E2E2" p-id="5030"></path></svg>